<?xml version="1.0" encoding="UTF-8" standalone="no"?>
<svg
   xmlns:dc="http://purl.org/dc/elements/1.1/"
   xmlns:cc="http://creativecommons.org/ns#"
   xmlns:rdf="http://www.w3.org/1999/02/22-rdf-syntax-ns#"
   xmlns:svg="http://www.w3.org/2000/svg"
   xmlns="http://www.w3.org/2000/svg"
   version="1.1"
   id="svg2"
   viewBox="0 0 360.00001 820"
   height="820"
   width="360">
  <defs
     id="defs9" />
  <metadata
     id="metadata7">
    <rdf:RDF>
      <cc:Work
         rdf:about="">
        <dc:format>image/svg+xml</dc:format>
        <dc:type
           rdf:resource="http://purl.org/dc/dcmitype/StillImage" />
        <dc:title></dc:title>
      </cc:Work>
    </rdf:RDF>
  </metadata>
  <path
     style="fill:#1d3955;fill-opacity:1;fill-rule:evenodd;stroke:none;stroke-width:0.53481513px;stroke-linecap:butt;stroke-linejoin:miter;stroke-opacity:1"
     d="m 224.09421,8.0266178 c -7.06906,-0.0351 -63.85767,3.1391302 -71.43164,113.7148422 -6.37548,93.07823 -5.24871,178.94371 5.29102,276.89258 -8.81156,-16.80003 -15.48677,-18.16664 -18.86328,-21.16797 -3.84207,-3.41516 -31.16238,-15.79576 -33.29688,-16.22266 -2.13444,-0.42688 -3.41684,-2.98746 -3.84375,-5.54883 -0.42687,-2.56136 0.42773,-16.22265 0.42773,-16.22265 1.70761,-2.13446 1.28125,-9.81836 1.28125,-9.81836 2.13444,3.41515 8.11106,1.7e-4 5.97657,-12.80664 -1.81339,-10.88021 -4.23585,-7.90212 -4.92578,-6.75781 -0.0969,0.27545 -0.19727,0.35351 -0.19727,0.35351 0,0 0.0751,-0.15088 0.19727,-0.35351 0.30457,-0.86546 0.58244,-3.70972 -2.33204,-12.45313 -3.842059,-11.52614 -14.086829,-16.22127 -23.478509,-17.50195 -0.58695,-0.08 -1.1882,-0.12447 -1.79883,-0.13281 -9.15954,-0.12506 -20.64025,7.62943 -24.24219,17.63476 -3.84205,10.67235 1.70703,18.35742 1.70703,18.35742 l -1.70703,-0.85547 c -1.70757,-0.85379 -3.84319,2.98831 -2.5625,5.97657 1.28071,2.98826 0.85407,6.83148 2.13477,8.53906 1.28065,1.70758 2.13564,5.97656 5.55078,5.97656 3.41518,0 1.70672,-3.41626 2.56055,0.42578 0.85382,3.84205 2.98774,6.40462 4.69531,11.52735 1.70758,5.12273 1.70898,13.66015 1.70898,13.66015 0,0 -29.20037,14.06847 -41.4082,24.75977 -8.78508,7.69375 -12.43279,26.05529 -20.0644496,43.54297 0.42687,2.98826 12.3788996,7.25781 12.3788996,7.25781 -1.28069,5.12273 0.42827,14.9404 -1.27929,30.30859 -0.51004,4.59031 -3.09611,12.08565 -3.55273,16.77735 -0.55869,5.7406 -1.02016,15.17195 -1.11524,25.38476 -0.0874,9.38507 1.63286,18.49317 0.87695,27.875 -1.01475,12.59378 5.85786,15.42247 4.2168,20.89258 -0.85378,5.12273 -0.42633,5.12116 1.28125,11.09766 1.70761,5.97652 -2.13531,19.21071 -3.41601,26.04101 -1.28066,6.8303 1.70812,12.37952 1.28125,19.63672 -0.42692,7.2572 -0.49225,21.70911 -1.28125,28.17578 -0.78901,6.46669 -0.29819,7.21644 -1.28907,10.67188 3.68793,1.79521 4.95606,1.60784 8.11523,1.95312 1.86897,0.20426 3.20859,0.39201 5.6504,0.5293 4.07622,10.69261 2.97992,13.75188 2.24023,20.54883 -0.76855,7.06209 -9.99068,38.3371 -5.76367,55.82422 4.22696,17.48711 10.37742,50.44374 9.22461,53.80664 -1.15278,3.36292 -5.7656,9.41639 -2.69141,12.77929 0,0 -2.30425,6.72483 -3.45703,8.40625 -1.15282,1.6815 -13.06531,8.40773 -6.14844,10.76172 6.91684,2.35403 15.75401,3e-4 17.29102,1.00977 1.53717,1.00896 4.22719,1.34301 9.22265,-1.68359 4.99556,-3.0267 4.99562,-0.67062 6.14844,-7.39649 1.15274,-6.72582 1.53558,-7.399 -1.1543,-12.44336 -2.68987,-5.04437 1.53754,-12.78005 0.38477,-19.50586 -1.15283,-6.72583 -0.3832,-9.07905 5.38086,-34.30078 4.60452,-20.14811 4.03404,-32.72718 3.18164,-46.69531 -0.21468,-3.51746 0.63255,-7.75257 0.27734,-11.48242 -0.76854,-8.07097 -1.55684,-10.99274 4.22657,-24.88477 0.60998,-1.46518 1.28848,-3.97365 2.01367,-7.20312 1.3102,-0.5022 4.02734,-0.72657 4.02734,-0.72657 0,0 0.4815,-6.24873 1.48438,-8.61523 0.87969,-2.0758 2.51999,-12.36004 3.30468,-21.75977 0.65356,-7.82921 4.07227,-13.74414 4.07227,-13.74414 1.70758,0.85378 1.28185,5.97466 2.5625,11.95117 1.2807,5.97652 2.8415,9.70523 2.66016,16.06641 -0.12095,4.24343 -2.23438,15.09766 -2.23438,15.09766 0.98026,1.17634 8.81264,1.34448 14.75195,1.41406 0.76175,3.3566 1.46881,5.99963 2.101569,7.51953 5.78341,13.89203 4.99511,16.8138 4.22656,24.88477 -0.35519,3.72985 0.49202,7.96496 0.27734,11.48242 -0.85239,13.96813 -1.42288,26.5472 3.18165,46.69531 5.76405,25.22173 6.53172,27.57495 5.3789,34.30078 -1.15277,6.72581 3.07464,14.46149 0.38477,19.50586 -2.68988,5.04436 -2.30508,5.71754 -1.15235,12.44336 1.15282,6.72587 1.15288,4.3698 6.14844,7.39649 4.99546,3.0266 7.68548,2.69255 9.22266,1.68359 1.537,-1.00884 10.37419,1.34426 17.29101,-1.00977 6.91688,-2.35399 -4.99366,-9.08022 -6.14648,-10.76172 -1.15282,-1.68142 -3.45898,-8.40625 -3.45899,-8.40625 3.07419,-3.3629 -1.53668,-9.41637 -2.68945,-12.77929 -1.15282,-3.3629 4.99374,-36.31953 9.22071,-53.80664 4.227,-17.48712 -4.99522,-48.76211 -5.76368,-55.82422 -0.76855,-7.06211 -1.91982,-10.08922 2.69141,-21.85938 0.52298,-1.33494 0.95612,-3.20973 1.375,-5.50586 6.18738,-1.18744 10.37755,-2.38959 9.55469,-3.34961 -2.56136,-2.98826 -2.98773,-26.89458 -1.70703,-32.87109 1.28066,-5.97652 -4.69699,-39.2743 -2.5625,-42.68945 2.13444,-3.41515 2.98828,-11.52539 2.98828,-11.52539 0,0 5.97766,-11.10076 5.55078,-13.66211 -2.31092,-13.5337 5.86222,-45.4773 4.48047,-58.91016 -1.37028,-13.32185 -4.12824,-21.09517 -3.20118,-32.01758 0.99135,-11.68012 0,-16.64843 0,-16.64843 2.49639,-1.2482 3.66518,-1.8317 6.41993,-3.20899 1.88837,14.8868 3.97622,30.07343 6.28906,45.64649 54.58448,367.53348 120.76305,337.76671 127.66211,337.10937 6.89906,-0.65733 54.23526,11.2157 58.08789,-192.60351 C 358.05037,420.78163 327.14755,206.63902 310.35789,128.79028 293.56822,50.941539 269.31762,9.5582578 224.81492,8.0461478 c 0,0 -0.24944,-0.0172 -0.72071,-0.0195 z M 131.8325,444.91529 c 1.70758,10.67234 4.69726,19.20874 4.69726,23.05078 0,3.84204 -1.28125,16.65039 -1.28125,16.65039 -0.42687,-5.54963 -3.4152,-8.96514 -2.98828,-11.09961 0.42686,-2.13447 -0.42774,-28.60156 -0.42773,-28.60156 z m -92.595709,7.60547 c 0,0 -0.10849,1.69294 -0.24609,3.95117 0.10036,5.53579 1.07781,14.58854 0.84961,17.7832 -0.30182,4.22604 -3.92383,10.86719 -3.92383,10.86719 0,0 2.71593,-5.13118 2.41406,-9.96094 -0.21401,-3.42405 0.32504,-13.18882 0.66016,-18.68945 -0.0326,-1.78721 0.0251,-3.21447 0.24609,-3.95117 z m 96.011719,43.62109 1.28125,16.64844 c -0.42688,-3.41515 -5.97711,-5.97576 -4.26953,-8.53711 1.70756,-2.56137 2.98828,-8.11133 2.98828,-8.11133 z"
     id="bottom" />
  <path
     style="fill:#647a92;fill-opacity:1;fill-rule:evenodd;stroke:none;stroke-width:0.53481513px;stroke-linecap:butt;stroke-linejoin:miter;stroke-opacity:1"
     d="m 224.09421,8.0265846 c -7.06906,-0.0351 -63.85767,3.1391304 -71.43164,113.7148454 -6.37548,93.07823 -5.24871,178.94371 5.29102,276.89258 -8.81155,-16.80003 -15.48677,-18.16663 -18.86328,-21.16797 -3.84205,-3.41515 -31.16239,-15.79577 -33.29688,-16.22266 -2.13444,-0.4269 -3.41684,-2.98747 -3.84375,-5.54883 -0.42687,-2.56137 0.42773,-16.22265 0.42773,-16.22265 1.70762,-2.13447 1.28125,-9.81836 1.28125,-9.81836 2.13445,3.41515 8.11106,1.8e-4 5.97657,-12.80664 -1.81339,-10.8802 -4.23584,-7.90212 -4.92578,-6.75781 -0.0969,0.27545 -0.19727,0.35351 -0.19727,0.35351 0,0 0.0751,-0.15087 0.19727,-0.35351 0.30456,-0.86546 0.58245,-3.70972 -2.33204,-12.45313 -3.84205,-11.52614 -14.08683,-16.22127 -23.478506,-17.50195 -0.58695,-0.08 -1.18821,-0.12447 -1.79883,-0.13281 -9.15954,-0.12506 -20.64025,7.62943 -24.24219,17.63476 -3.84205,10.67234 1.70703,18.35742 1.70703,18.35742 l -1.70703,-0.85547 c -1.70756,-0.8538 -3.84319,2.98831 -2.5625,5.97657 1.2807,2.98825 0.85407,6.83148 2.13477,8.53906 1.28065,1.70757 2.13564,5.97656 5.55078,5.97656 3.41518,0 1.70672,-3.41626 2.56055,0.42578 0.85382,3.84205 2.98774,6.40462 4.69531,11.52735 1.70758,5.12273 1.70898,13.66015 1.70898,13.66015 0,0 -29.20037,14.06848 -41.4082,24.75977 -8.78508,7.69374 -12.432789,26.05529 -20.0644516,43.54297 0.426866,2.98825 12.3789016,7.25781 12.3789016,7.25781 -1.28069,5.12272 0.42827,14.9404 -1.27929,30.30859 -0.510044,4.5903 -3.096113,12.08566 -3.552737,16.77735 -0.558685,5.7406 -1.020152,15.17195 -1.115235,25.38476 -0.08736,9.38508 1.632861,18.49513 0.876954,27.87696 -1.014757,12.59378 5.857858,15.4205 4.216798,20.89062 -0.853781,5.12273 -0.42633,5.12116 1.28125,11.09766 1.70761,5.97652 -2.135315,19.21071 -3.416017,26.04101 -1.280655,6.83031 1.708127,12.37952 1.28125,19.63672 -0.426914,7.2572 -0.492249,21.7091 -1.28125,28.17578 -0.789001,6.46668 -0.298185,7.21645 -1.289063,10.67188 3.68793,1.79522 4.95606,1.60785 8.11523,1.95312 1.86897,0.20426 3.20859,0.39201 5.6504,0.5293 4.07622,10.69261 2.97991,13.75188 2.24023,20.54883 -0.76855,7.06209 -9.99068,38.33712 -5.76367,55.82422 4.22696,17.48712 10.37742,50.44373 9.22461,53.80664 -1.15278,3.36291 -5.7656,9.41639 -2.69141,12.77929 0,0 -2.30425,6.72483 -3.45703,8.40625 -1.15282,1.6815 -13.065315,8.40773 -6.14844,10.76172 6.91684,2.35403 15.75401,3e-4 17.29102,1.00977 1.53717,1.00896 4.22719,1.34301 9.22265,-1.68359 4.99556,-3.0267 4.99562,-0.67063 6.14844,-7.39649 1.15274,-6.72582 1.53558,-7.399 -1.1543,-12.44336 -2.68987,-5.04437 1.53754,-12.78004 0.38477,-19.50586 -1.15283,-6.72581 -0.3832,-9.07905 5.38086,-34.30078 4.60452,-20.1481 4.03404,-32.72719 3.18164,-46.69531 -0.21468,-3.51747 0.63255,-7.75257 0.27734,-11.48242 -0.76854,-8.07097 -1.55684,-10.99272 4.22657,-24.88477 0.60998,-1.46517 1.28848,-3.97365 2.01367,-7.20312 1.3102,-0.50222 4.02734,-0.72657 4.02734,-0.72657 0,0 0.4815,-6.24873 1.48438,-8.61523 0.87969,-2.0758 2.51999,-12.36004 3.30468,-21.75977 0.65356,-7.82922 4.072266,-13.74414 4.072266,-13.74414 1.70758,0.85379 1.28184,5.97466 2.5625,11.95117 1.2807,5.97652 2.8415,9.70523 2.66016,16.06641 -0.12096,4.24344 -2.23438,15.09766 -2.23438,15.09766 0.98027,1.17634 8.81264,1.34448 14.75195,1.41406 0.76174,3.3566 1.4688,5.99964 2.10157,7.51953 5.78341,13.89205 4.99511,16.8138 4.22656,24.88477 -0.3552,3.72985 0.49202,7.96495 0.27734,11.48242 -0.85239,13.96812 -1.42288,26.54721 3.18165,46.69531 5.76405,25.22173 6.53172,27.57497 5.3789,34.30078 -1.15278,6.72582 3.07464,14.46149 0.38477,19.50586 -2.68987,5.04436 -2.30508,5.71754 -1.15235,12.44336 1.15283,6.72586 1.15288,4.36979 6.14844,7.39649 4.99546,3.0266 7.68548,2.69255 9.22266,1.68359 1.53701,-1.00884 10.37418,1.34426 17.29101,-1.00977 6.91689,-2.35399 -4.99366,-9.08022 -6.14648,-10.76172 -1.15282,-1.68142 -3.45898,-8.40625 -3.45899,-8.40625 3.07419,-3.3629 -1.53667,-9.41638 -2.68945,-12.77929 -1.15281,-3.36291 4.99374,-36.31952 9.22071,-53.80664 4.227,-17.4871 -4.99522,-48.76211 -5.76368,-55.82422 -0.76855,-7.0621 -1.91982,-10.08921 2.69141,-21.85938 0.52297,-1.33493 0.95611,-3.20972 1.375,-5.50586 6.18737,-1.18744 10.37754,-2.38959 9.55469,-3.34961 -2.56136,-2.98826 -2.98774,-26.89458 -1.70703,-32.87109 1.28065,-5.97652 -4.69699,-39.2743 -2.5625,-42.68945 2.13444,-3.41515 2.98828,-11.52539 2.98828,-11.52539 0,0 5.97766,-11.10076 5.55078,-13.66211 -2.31092,-13.53369 5.86222,-45.47729 4.48047,-58.91016 -1.37029,-13.32184 -4.12824,-21.09516 -3.20118,-32.01758 0.99135,-11.68011 0,-16.64843 0,-16.64843 2.49639,-1.2482 3.66518,-1.8317 6.41993,-3.20899 1.88837,14.8868 3.97622,30.07343 6.28906,45.64649 54.58448,367.53348 120.76305,337.76671 127.66211,337.10937 6.89906,-0.65733 54.23526,11.2157 58.08789,-192.60351 C 358.05037,420.7816 327.14755,206.63899 310.35789,128.79025 293.56822,50.941506 269.31762,9.5582246 224.81492,8.0461146 c 0,0 -0.24944,-0.0172 -0.72071,-0.0195 z M 131.8325,444.91526 c 1.70757,10.67234 4.69726,19.20873 4.69726,23.05078 0,3.84205 -1.28125,16.65039 -1.28125,16.65039 -0.42687,-5.54962 -3.41519,-8.96514 -2.98828,-11.09961 0.42687,-2.13447 -0.42773,-28.60156 -0.42773,-28.60156 z m -92.595706,7.60547 c 0,0 -0.10849,1.69293 -0.24609,3.95117 0.10036,5.53578 1.07781,14.58854 0.84961,17.7832 -0.30182,4.22603 -3.92383,10.86719 -3.92383,10.86719 0,0 2.71593,-5.13119 2.41406,-9.96094 -0.21401,-3.42405 0.32504,-13.18882 0.66016,-18.68945 -0.0326,-1.78721 0.0251,-3.21447 0.24609,-3.95117 z m 96.011716,43.62109 1.28125,16.64844 c -0.42688,-3.41515 -5.9771,-5.97575 -4.26953,-8.53711 1.70757,-2.56137 2.98828,-8.11133 2.98828,-8.11133 z"
     id="top" />
  <path
     id="waterLevel"
     d="M 0,0 C 0,0 30,0 45,0 60,0 75,0 90,0 105,0 120,0 135,0 150,0 165,0 180,0 195,0 210,0 225,0 240,0 255,0 270,0 285,0 300,0 315,0 330,0 360,0 360,0 L 360,820 0,820 Z"
     style="opacity:1;fill:#647a92;fill-opacity:1;stroke:none;stroke-opacity:1" />
</svg>
