<?xml version="1.0" encoding="UTF-8" standalone="no"?>
<svg
   xmlns:dc="http://purl.org/dc/elements/1.1/"
   xmlns:cc="http://creativecommons.org/ns#"
   xmlns:rdf="http://www.w3.org/1999/02/22-rdf-syntax-ns#"
   xmlns:svg="http://www.w3.org/2000/svg"
   xmlns="http://www.w3.org/2000/svg"
   xmlns:sodipodi="http://sodipodi.sourceforge.net/DTD/sodipodi-0.dtd"
   xmlns:inkscape="http://www.inkscape.org/namespaces/inkscape"
   version="1.1"
   id="svg2"
   viewBox="0 0 467.00001 827"
   height="827"
   width="467"
   inkscape:version="0.91 r13725"
   sodipodi:docname="top.svg"
   inkscape:export-filename="/Users/tmartin/Desktop/firebase-demo/top.png"
   inkscape:export-xdpi="90"
   inkscape:export-ydpi="90">
  <sodipodi:namedview
     pagecolor="#eef3f9"
     bordercolor="#666666"
     borderopacity="1"
     objecttolerance="10"
     gridtolerance="10"
     guidetolerance="10"
     inkscape:pageopacity="1"
     inkscape:pageshadow="2"
     inkscape:window-width="693"
     inkscape:window-height="480"
     id="namedview13"
     showgrid="false"
     inkscape:zoom="0.2853688"
     inkscape:cx="-209.78602"
     inkscape:cy="505.02715"
     inkscape:window-x="0"
     inkscape:window-y="92"
     inkscape:window-maximized="0"
     inkscape:current-layer="svg2" />
  <defs
     id="defs9" />
  <metadata
     id="metadata7">
    <rdf:RDF>
      <cc:Work
         rdf:about="">
        <dc:format>image/svg+xml</dc:format>
        <dc:type
           rdf:resource="http://purl.org/dc/dcmitype/StillImage" />
        <dc:title />
      </cc:Work>
    </rdf:RDF>
  </metadata>
  <path
     inkscape:connector-curvature="0"
     id="top"
     d="M 330.91062,15.026584 C 323.84156,14.991484 267.05295,18.165715 259.47898,128.74143 253.1035,221.81966 254.23027,307.68514 264.77,405.63401 255.95845,388.83398 249.28323,387.46738 245.90672,384.46604 242.06467,381.05089 214.74433,368.67027 212.60984,368.24338 210.4754,367.81648 209.193,365.25591 208.76609,362.69455 208.33922,360.13318 209.19382,346.4719 209.19382,346.4719 210.90144,344.33743 210.47507,336.65354 210.47507,336.65354 212.60952,340.06869 218.58613,336.65372 216.45164,323.8469 214.63825,312.9667 212.2158,315.94478 211.52586,317.08909 211.42896,317.36454 211.32859,317.4426 211.32859,317.4426 211.32859,317.4426 211.40369,317.29173 211.52586,317.08909 211.83042,316.22363 212.10831,313.37937 209.19382,304.63596 205.35177,293.10982 195.10699,288.41469 185.71531,287.13401 185.12836,287.05401 184.5271,287.00954 183.91648,287.0012 174.75694,286.87614 163.27623,294.63063 159.67429,304.63596 155.83224,315.3083 161.38132,322.99338 161.38132,322.99338 L 159.67429,322.13791 C 157.96673,321.28411 155.8311,325.12622 157.11179,328.11448 158.39249,331.10273 157.96586,334.94596 159.24656,336.65354 160.52721,338.36111 161.3822,342.6301 164.79734,342.6301 168.21252,342.6301 166.50406,339.21384 167.35789,343.05588 168.21171,346.89793 170.34563,349.4605 172.0532,354.58323 173.76078,359.70596 173.76218,368.24338 173.76218,368.24338 173.76218,368.24338 144.56181,382.31186 132.35398,393.00315 123.5689,400.69689 119.9212,419.05844 112.28953,436.54612 112.7164,439.53437 124.66843,443.80393 124.66843,443.80393 123.38774,448.92665 125.0967,458.74433 123.38914,474.11252 122.8791,478.70282 120.29303,486.19818 119.83641,490.88987 119.27772,496.63047 118.81626,506.06182 118.72117,516.27463 118.63381,525.65971 120.35403,534.76976 119.59813,544.15159 118.58337,556.74537 125.45598,559.57209 123.81492,565.04221 122.96114,570.16494 123.38859,570.16337 125.09617,576.13987 126.80378,582.11639 122.96086,595.35058 121.68016,602.18088 120.3995,609.01119 123.38828,614.5604 122.96141,621.8176 122.53449,629.0748 122.46916,643.5267 121.68016,649.99338 120.89116,656.46006 121.38197,657.20983 120.39109,660.66526 124.07902,662.46048 125.34715,662.27311 128.50632,662.61838 130.37529,662.82264 131.71491,663.01039 134.15672,663.14768 138.23294,673.84029 137.13663,676.89956 136.39695,683.69651 135.6284,690.7586 126.40627,722.03363 130.63328,739.52073 134.86024,757.00785 141.0107,789.96446 139.85789,793.32737 138.70511,796.69028 134.09229,802.74376 137.16648,806.10666 137.16648,806.10666 134.86223,812.83149 133.70945,814.51291 132.55663,816.19441 120.64414,822.92064 127.56101,825.27463 134.47785,827.62866 143.31502,825.27493 144.85203,826.2844 146.3892,827.29336 149.07922,827.62741 154.07468,824.60081 159.07024,821.57411 159.0703,823.93018 160.22312,817.20432 161.37586,810.4785 161.7587,809.80532 159.06882,804.76096 156.37895,799.71659 160.60636,791.98092 159.45359,785.2551 158.30076,778.52929 159.07039,776.17605 164.83445,750.95432 169.43897,730.80622 168.86849,718.22713 168.01609,704.25901 167.80141,700.74154 168.64864,696.50644 168.29343,692.77659 167.52489,684.70562 166.73659,681.78387 172.52,667.89182 173.12998,666.42665 173.80848,663.91817 174.53367,660.6887 175.84387,660.18648 178.56101,659.96213 178.56101,659.96213 178.56101,659.96213 179.04251,653.7134 180.04539,651.3469 180.92508,649.2711 182.56538,638.98686 183.35007,629.58713 184.00363,621.75791 187.42234,615.84299 187.42234,615.84299 189.12992,616.69678 188.70418,621.81765 189.98484,627.79416 191.26554,633.77068 192.82634,637.49939 192.645,643.86057 192.52404,648.10401 190.41062,658.95823 190.41062,658.95823 191.39089,660.13457 199.22326,660.30271 205.16257,660.37229 205.92431,663.72889 206.63137,666.37193 207.26414,667.89182 213.04755,681.78387 212.25925,684.70562 211.4907,692.77659 211.1355,696.50644 211.98272,700.74154 211.76804,704.25901 210.91565,718.22713 210.34516,730.80622 214.94969,750.95432 220.71374,776.17605 221.48141,778.52929 220.32859,785.2551 219.17581,791.98092 223.40323,799.71659 220.71336,804.76096 218.02349,809.80532 218.40828,810.4785 219.56101,817.20432 220.71384,823.93018 220.71389,821.57411 225.70945,824.60081 230.70491,827.62741 233.39493,827.29336 234.93211,826.2844 236.46912,825.27556 245.30629,827.62866 252.22312,825.27463 259.14001,822.92064 247.22946,816.19441 246.07664,814.51291 244.92382,812.83149 242.61766,806.10666 242.61765,806.10666 245.69184,802.74376 241.08098,796.69028 239.9282,793.32737 238.77539,789.96446 244.92194,757.00785 249.14891,739.52073 253.37591,722.03363 244.15369,690.75862 243.38523,683.69651 242.61668,676.63441 241.46541,673.6073 246.07664,661.83713 246.59961,660.5022 247.03275,658.62741 247.45164,656.33127 253.63901,655.14383 257.82918,653.94168 257.00633,652.98166 254.44497,649.9934 254.01859,626.08708 255.2993,620.11057 256.57995,614.13405 250.60231,580.83627 252.7368,577.42112 254.87124,574.00597 255.72508,565.89573 255.72508,565.89573 255.72508,565.89573 261.70274,554.79497 261.27586,552.23362 258.96494,538.69993 267.13808,506.75633 265.75633,493.32346 264.38604,480.00162 261.62809,472.2283 262.55515,461.30588 263.5465,449.62577 262.55515,444.65745 262.55515,444.65745 265.05154,443.40925 266.22033,442.82575 268.97508,441.44846 270.86345,456.33526 272.9513,471.52189 275.26414,487.09495 329.84862,854.62843 396.02719,824.86166 402.92625,824.20432 409.82531,823.54699 457.16151,835.42002 461.01414,631.60081 464.86678,427.7816 433.96396,213.63899 417.1743,135.79025 400.38463,57.941506 376.13403,16.558225 331.63133,15.046114 331.63133,15.046114 331.38189,15.028914 330.91062,15.026615 Z M 238.64891,451.91526 C 240.35648,462.5876 243.34617,471.12399 243.34617,474.96604 243.34617,478.80809 242.06492,491.61643 242.06492,491.61643 241.63805,486.06681 238.64973,482.65129 239.07664,480.51682 239.50351,478.38235 238.64891,451.91526 238.64891,451.91526 Z M 146.0532,459.52073 C 146.0532,459.52073 145.94471,461.21366 145.80711,463.4719 145.90747,469.00768 146.88492,478.06044 146.65672,481.2551 146.3549,485.48113 142.73289,492.12229 142.73289,492.12229 142.73289,492.12229 145.44882,486.9911 145.14695,482.16135 144.93294,478.7373 145.47199,468.97253 145.80711,463.4719 145.77451,461.68469 145.83221,460.25743 146.0532,459.52073 Z M 242.06492,503.14182 243.34617,519.79026 C 242.91929,516.37511 237.36907,513.81451 239.07664,511.25315 240.78421,508.69178 242.06492,503.14182 242.06492,503.14182 Z"
     style="fill:#00baf0;fill-opacity:1;fill-rule:evenodd;stroke:none;stroke-width:0.53481513px;stroke-linecap:butt;stroke-linejoin:miter;stroke-opacity:1" />
</svg>
