<?xml version="1.0" encoding="UTF-8" standalone="no"?>
<svg
   xmlns:dc="http://purl.org/dc/elements/1.1/"
   xmlns:cc="http://creativecommons.org/ns#"
   xmlns:rdf="http://www.w3.org/1999/02/22-rdf-syntax-ns#"
   xmlns:svg="http://www.w3.org/2000/svg"
   xmlns="http://www.w3.org/2000/svg"
   width="467"
   height="827"
   viewBox="0 0 467.00001 827"
   id="svg2"
   version="1.1">
  <defs
     id="defs9" />
  <metadata
     id="metadata7">
    <rdf:RDF>
      <cc:Work
         rdf:about="">
        <dc:format>image/svg+xml</dc:format>
        <dc:type
           rdf:resource="http://purl.org/dc/dcmitype/StillImage" />
        <dc:title></dc:title>
      </cc:Work>
    </rdf:RDF>
  </metadata>
  <g
     id="g5"
     transform="translate(106.81641,6.9999999)">
    <path
       id="bottom"
       d="M 224.09421,8.0266178 C 217.02515,7.9915178 160.23654,11.165748 152.66257,121.74146 146.28709,214.81969 147.41386,300.68517 157.95359,398.63404 149.14203,381.83401 142.46682,380.4674 139.09031,377.46607 135.24824,374.05091 107.92793,361.67031 105.79343,361.24341 103.65899,360.81653 102.37659,358.25595 101.94968,355.69458 101.52281,353.13322 102.37741,339.47193 102.37741,339.47193 104.08502,337.33747 103.65866,329.65357 103.65866,329.65357 105.7931,333.06872 111.76972,329.65374 109.63523,316.84693 107.82184,305.96672 105.39938,308.94481 104.70945,310.08912 104.61255,310.36457 104.51218,310.44263 104.51218,310.44263 104.51218,310.44263 104.58728,310.29175 104.70945,310.08912 105.01402,309.22366 105.29189,306.3794 102.37741,297.63599 98.535351,286.10985 88.290581,281.41472 78.898901,280.13404 78.311951,280.05404 77.710701,280.00957 77.100071,280.00123 67.940531,279.87617 56.459821,287.63066 52.857881,297.63599 49.015831,308.30834 54.564911,315.99341 54.564911,315.99341 L 52.857881,315.13794 C 51.150311,314.28415 49.014691,318.12625 50.295381,321.11451 51.576091,324.10277 51.149451,327.94599 52.430151,329.65357 53.710801,331.36115 54.565791,335.63013 57.980931,335.63013 61.396111,335.63013 59.687651,332.21387 60.541481,336.05591 61.395301,339.89796 63.529221,342.46053 65.236791,347.58326 66.944371,352.70599 66.945771,361.24341 66.945771,361.24341 66.945771,361.24341 37.745401,375.31188 25.537571,386.00318 16.752491,393.69693 13.104781,412.05847 5.4731214,429.54615 5.8999914,432.53441 17.852021,436.80396 17.852021,436.80396 16.571331,441.92669 18.280291,451.74436 16.572731,467.11255 16.062691,471.70286 13.476621,479.1982 13.020001,483.8899 12.461311,489.6305 11.999841,499.06185 11.904761,509.27466 11.817361,518.65973 13.537621,527.76783 12.781711,537.14966 11.766961,549.74344 18.639571,552.57213 16.998511,558.04224 16.144731,563.16497 16.572181,563.1634 18.279761,569.1399 19.987371,575.11642 16.144451,588.35061 14.863751,595.18091 13.583091,602.01121 16.571871,607.56043 16.145001,614.81763 15.718081,622.07483 15.652751,636.52674 14.863751,642.99341 14.074741,649.4601 14.565561,650.20985 13.574681,653.66529 17.262611,655.4605 18.530741,655.27313 21.689911,655.61841 23.558881,655.82267 24.898501,656.01042 27.340311,656.14771 31.416531,666.84032 30.320231,669.89959 29.580541,676.69654 28.811991,683.75863 19.589861,715.03364 23.816871,732.52076 28.043831,750.00787 34.194291,782.9645 33.041481,786.3274 31.888701,789.69032 27.275881,795.74379 30.350071,799.10669 30.350071,799.10669 28.045821,805.83152 26.893041,807.51294 25.740221,809.19444 13.827731,815.92067 20.744601,818.27466 27.661441,820.62869 36.498611,818.27496 38.035621,819.28443 39.572791,820.29339 42.262811,820.62744 47.258271,817.60084 52.253831,814.57414 52.253891,816.93022 53.406711,810.20435 54.559451,803.47853 54.942291,802.80535 52.252411,797.76099 49.562541,792.71662 53.789951,784.98094 52.637181,778.25513 51.484351,771.5293 52.253981,769.17608 58.018041,743.95435 62.622561,723.80624 62.052081,711.22717 61.199681,697.25904 60.985001,693.74158 61.832231,689.50647 61.477021,685.77662 60.708481,677.70565 59.920181,674.78388 65.703591,660.89185 66.313571,659.42667 66.992071,656.9182 67.717261,653.68873 69.027461,653.18653 71.744601,652.96216 71.744601,652.96216 71.744601,652.96216 72.226101,646.71343 73.228981,644.34693 74.108671,642.27113 75.748971,631.98689 76.533661,622.58716 77.187221,614.75795 80.605931,608.84302 80.605931,608.84302 82.313511,609.6968 81.887781,614.81768 83.168431,620.79419 84.449131,626.77071 86.009931,630.49942 85.828591,636.8606 85.707641,641.10403 83.594211,651.95826 83.594211,651.95826 84.574471,653.1346 92.406851,653.30274 98.346161,653.37232 99.107911,656.72892 99.814971,659.37195 100.44773,660.89185 106.23114,674.78388 105.44284,677.70565 104.67429,685.77662 104.3191,689.50647 105.16631,693.74158 104.95163,697.25904 104.09924,711.22717 103.52875,723.80624 108.13328,743.95435 113.89733,769.17608 114.665,771.5293 113.51218,778.25513 112.35941,784.98094 116.58682,792.71662 113.89695,797.76099 111.20707,802.80535 111.59187,803.47853 112.7446,810.20435 113.89742,816.93022 113.89748,814.57415 118.89304,817.60084 123.8885,820.62744 126.57852,820.29339 128.1157,819.28443 129.6527,818.27559 138.48989,820.62869 145.40671,818.27466 152.32359,815.92067 140.41305,809.19444 139.26023,807.51294 138.10741,805.83152 135.80125,799.10669 135.80124,799.10669 138.87543,795.74379 134.26456,789.69032 133.11179,786.3274 131.95897,782.9645 138.10553,750.00787 142.3325,732.52076 146.5595,715.03364 137.33728,683.75865 136.56882,676.69654 135.80027,669.63443 134.649,666.60732 139.26023,654.83716 139.78321,653.50222 140.21635,651.62743 140.63523,649.3313 146.82261,648.14386 151.01278,646.94171 150.18992,645.98169 147.62856,642.99343 147.20219,619.08711 148.48289,613.1106 149.76355,607.13408 143.7859,573.8363 145.92039,570.42115 148.05483,567.006 148.90867,558.89576 148.90867,558.89576 148.90867,558.89576 154.88633,547.795 154.45945,545.23365 152.14853,531.69995 160.32167,499.75635 158.93992,486.32349 157.56964,473.00164 154.81168,465.22832 155.73874,454.30591 156.73009,442.62579 155.73874,437.65748 155.73874,437.65748 158.23513,436.40928 159.40392,435.82578 162.15867,434.44849 164.04704,449.33529 166.13489,464.52192 168.44773,480.09498 223.03221,847.62846 289.21078,817.86169 296.10984,817.20435 303.0089,816.54702 350.3451,828.42005 354.19773,624.60084 358.05037,420.78163 327.14755,206.63902 310.35789,128.79028 293.56822,50.941539 269.31762,9.5582578 224.81492,8.0461478 224.81492,8.0461478 224.56548,8.0289478 224.09421,8.0266478 Z M 131.8325,444.91529 C 133.54008,455.58763 136.52976,464.12403 136.52976,467.96607 136.52976,471.80811 135.24851,484.61646 135.24851,484.61646 134.82164,479.06683 131.83331,475.65132 132.26023,473.51685 132.68709,471.38238 131.83249,444.91529 131.8325,444.91529 Z M 39.236791,452.52076 C 39.236791,452.52076 39.128301,454.2137 38.990701,456.47193 39.091061,462.00772 40.068511,471.06047 39.840311,474.25513 39.538491,478.48117 35.916481,485.12232 35.916481,485.12232 35.916481,485.12232 38.632411,479.99114 38.330541,475.16138 38.116531,471.73733 38.655581,461.97256 38.990701,456.47193 38.958101,454.68472 39.015801,453.25746 39.236791,452.52076 Z M 135.24851,496.14185 136.52976,512.79029 C 136.10288,509.37514 130.55265,506.81453 132.26023,504.25318 133.96779,501.69181 135.24851,496.14185 135.24851,496.14185 Z"
       style="fill:#1d3955;fill-opacity:1;fill-rule:evenodd;stroke:none;stroke-width:0.53481513px;stroke-linecap:butt;stroke-linejoin:miter;stroke-opacity:1" />
    <path
       id="top"
       d="M 224.09421,8.0265846 C 217.02515,7.9914846 160.23654,11.165715 152.66257,121.74143 146.28709,214.81966 147.41386,300.68514 157.95359,398.63401 149.14204,381.83398 142.46682,380.46738 139.09031,377.46604 135.24826,374.05089 107.92792,361.67027 105.79343,361.24338 103.65899,360.81648 102.37659,358.25591 101.94968,355.69455 101.52281,353.13318 102.37741,339.4719 102.37741,339.4719 104.08503,337.33743 103.65866,329.65354 103.65866,329.65354 105.79311,333.06869 111.76972,329.65372 109.63523,316.8469 107.82184,305.9667 105.39939,308.94478 104.70945,310.08909 104.61255,310.36454 104.51218,310.4426 104.51218,310.4426 104.51218,310.4426 104.58728,310.29173 104.70945,310.08909 105.01401,309.22363 105.2919,306.37937 102.37741,297.63596 98.53536,286.10982 88.29058,281.41469 78.898904,280.13401 78.311954,280.05401 77.710694,280.00954 77.100074,280.0012 67.940534,279.87614 56.459824,287.63063 52.857884,297.63596 49.015834,308.3083 54.564914,315.99338 54.564914,315.99338 L 52.857884,315.13791 C 51.150324,314.28411 49.014694,318.12622 50.295384,321.11448 51.576084,324.10273 51.149454,327.94596 52.430154,329.65354 53.710804,331.36111 54.565794,335.6301 57.980934,335.6301 61.396114,335.6301 59.687654,332.21384 60.541484,336.05588 61.395304,339.89793 63.529224,342.4605 65.236794,347.58323 66.944374,352.70596 66.945774,361.24338 66.945774,361.24338 66.945774,361.24338 37.745404,375.31186 25.537574,386.00315 16.752494,393.69689 13.104785,412.05844 5.4731224,429.54612 5.8999884,432.53437 17.852024,436.80393 17.852024,436.80393 16.571334,441.92665 18.280294,451.74433 16.572734,467.11252 16.06269,471.70282 13.476621,479.19818 13.019997,483.88987 12.461312,489.63047 11.999845,499.06182 11.904762,509.27463 11.817402,518.65971 13.537623,527.76976 12.781716,537.15159 11.766959,549.74537 18.639574,552.57209 16.998514,558.04221 16.144733,563.16494 16.572184,563.16337 18.279764,569.13987 19.987374,575.11639 16.144449,588.35058 14.863747,595.18088 13.583092,602.01119 16.571874,607.5604 16.144997,614.8176 15.718083,622.0748 15.652748,636.5267 14.863747,642.99338 14.074746,649.46006 14.565562,650.20983 13.574684,653.66526 17.262614,655.46048 18.530744,655.27311 21.689914,655.61838 23.558884,655.82264 24.898504,656.01039 27.340314,656.14768 31.416534,666.84029 30.320224,669.89956 29.580544,676.69651 28.811994,683.7586 19.589864,715.03363 23.816874,732.52073 28.043834,750.00785 34.194294,782.96446 33.041484,786.32737 31.888704,789.69028 27.275884,795.74376 30.350074,799.10666 30.350074,799.10666 28.045824,805.83149 26.893044,807.51291 25.740224,809.19441 13.827729,815.92064 20.744604,818.27463 27.661444,820.62866 36.498614,818.27493 38.035624,819.2844 39.572794,820.29336 42.262814,820.62741 47.258274,817.60081 52.253834,814.57411 52.253894,816.93018 53.406714,810.20432 54.559454,803.4785 54.942294,802.80532 52.252414,797.76096 49.562544,792.71659 53.789954,784.98092 52.637184,778.2551 51.484354,771.52929 52.253984,769.17605 58.018044,743.95432 62.622564,723.80622 62.052084,711.22713 61.199684,697.25901 60.985004,693.74154 61.832234,689.50644 61.477024,685.77659 60.708484,677.70562 59.920184,674.78387 65.703594,660.89182 66.313574,659.42665 66.992074,656.91817 67.717264,653.6887 69.027464,653.18648 71.744604,652.96213 71.744604,652.96213 71.744604,652.96213 72.226104,646.7134 73.228984,644.3469 74.108674,642.2711 75.748974,631.98686 76.533664,622.58713 77.187224,614.75791 80.60593,608.84299 80.60593,608.84299 82.31351,609.69678 81.88777,614.81765 83.16843,620.79416 84.44913,626.77068 86.00993,630.49939 85.82859,636.86057 85.70763,641.10401 83.59421,651.95823 83.59421,651.95823 84.57448,653.13457 92.40685,653.30271 98.34616,653.37229 99.1079,656.72889 99.81496,659.37193 100.44773,660.89182 106.23114,674.78387 105.44284,677.70562 104.67429,685.77659 104.31909,689.50644 105.16631,693.74154 104.95163,697.25901 104.09924,711.22713 103.52875,723.80622 108.13328,743.95432 113.89733,769.17605 114.665,771.52929 113.51218,778.2551 112.3594,784.98092 116.58682,792.71659 113.89695,797.76096 111.20708,802.80532 111.59187,803.4785 112.7446,810.20432 113.89743,816.93018 113.89748,814.57411 118.89304,817.60081 123.8885,820.62741 126.57852,820.29336 128.1157,819.2844 129.65271,818.27556 138.48988,820.62866 145.40671,818.27463 152.3236,815.92064 140.41305,809.19441 139.26023,807.51291 138.10741,805.83149 135.80125,799.10666 135.80124,799.10666 138.87543,795.74376 134.26457,789.69028 133.11179,786.32737 131.95898,782.96446 138.10553,750.00785 142.3325,732.52073 146.5595,715.03363 137.33728,683.75862 136.56882,676.69651 135.80027,669.63441 134.649,666.6073 139.26023,654.83713 139.7832,653.5022 140.21634,651.62741 140.63523,649.33127 146.8226,648.14383 151.01277,646.94168 150.18992,645.98166 147.62856,642.9934 147.20218,619.08708 148.48289,613.11057 149.76354,607.13405 143.7859,573.83627 145.92039,570.42112 148.05483,567.00597 148.90867,558.89573 148.90867,558.89573 148.90867,558.89573 154.88633,547.79497 154.45945,545.23362 152.14853,531.69993 160.32167,499.75633 158.93992,486.32346 157.56963,473.00162 154.81168,465.2283 155.73874,454.30588 156.73009,442.62577 155.73874,437.65745 155.73874,437.65745 158.23513,436.40925 159.40392,435.82575 162.15867,434.44846 164.04704,449.33526 166.13489,464.52189 168.44773,480.09495 223.03221,847.62843 289.21078,817.86166 296.10984,817.20432 303.0089,816.54699 350.3451,828.42002 354.19773,624.60081 358.05037,420.7816 327.14755,206.63899 310.35789,128.79025 293.56822,50.941506 269.31762,9.5582246 224.81492,8.0461146 224.81492,8.0461146 224.56548,8.0289146 224.09421,8.0266146 Z M 131.8325,444.91526 C 133.54007,455.5876 136.52976,464.12399 136.52976,467.96604 136.52976,471.80809 135.24851,484.61643 135.24851,484.61643 134.82164,479.06681 131.83332,475.65129 132.26023,473.51682 132.6871,471.38235 131.8325,444.91526 131.8325,444.91526 Z M 39.236794,452.52073 C 39.236794,452.52073 39.128304,454.21366 38.990704,456.4719 39.091064,462.00768 40.068514,471.06044 39.840314,474.2551 39.538494,478.48113 35.916484,485.12229 35.916484,485.12229 35.916484,485.12229 38.632414,479.9911 38.330544,475.16135 38.116534,471.7373 38.655584,461.97253 38.990704,456.4719 38.958104,454.68469 39.015804,453.25743 39.236794,452.52073 Z M 135.24851,496.14182 136.52976,512.79026 C 136.10288,509.37511 130.55266,506.81451 132.26023,504.25315 133.9678,501.69178 135.24851,496.14182 135.24851,496.14182 Z"
       style="fill:#00baf0;fill-opacity:1;fill-rule:evenodd;stroke:none;stroke-width:0.53481513px;stroke-linecap:butt;stroke-linejoin:miter;stroke-opacity:1" />
    <path
       style="opacity:1;fill:#00baf0;fill-opacity:1;stroke:none;stroke-opacity:1"
       d="M 0,0 C 0,0 30,0 45,0 60,0 75,0 90,0 105,0 120,0 135,0 150,0 165,0 180,0 195,0 210,0 225,0 240,0 255,0 270,0 285,0 300,0 315,0 330,0 360,0 360,0 L 360,820 0,820 Z"
       id="waterLevel" />
    <g
       id="text4138"
       style="font-style:normal;font-weight:normal;font-size:40px;line-height:125%;font-family:sans-serif;letter-spacing:0px;word-spacing:0px;fill:#000000;fill-opacity:1;stroke:none;stroke-width:1px;stroke-linecap:butt;stroke-linejoin:miter;stroke-opacity:1">
      <path
         id="path4152"
         style="font-style:normal;font-variant:normal;font-weight:bold;font-stretch:normal;font-family:'Maven Pro';-inkscape-font-specification:'Maven Pro Bold';fill:#224264;fill-opacity:1"
         d="M -106.38672,279.67969 Q -106.38672,275.87109 -105.42969,273.03906 -104.47266,270.20703 -103.14453,268.70312 -101.81641,267.19922 -99.980469,266.30078 -98.144531,265.40234 -96.816406,265.16797 -95.46875,264.93359 -94.0625,264.93359 -92.109375,264.93359 -89.472656,265.67578 L -89.472656,269.93359 Q -91.074219,269.40625 -93.789062,269.40625 -94.707031,269.40625 -95.703125,269.66016 -96.699219,269.89453 -97.929687,270.48047 -99.140625,271.04687 -100.11719,272.35547 -101.07422,273.64453 -101.38672,275.48047 -99.628906,274.13281 -96.503906,274.13281 -92.1875,274.13281 -89.824219,276.49609 -87.460937,278.83984 -87.460937,282.96094 -87.460937,284.64062 -87.988281,286.22266 -88.496094,287.80469 -89.570312,289.21094 -90.625,290.59766 -92.539062,291.4375 -94.433594,292.27734 -96.914062,292.27734 -106.38672,292.27734 -106.38672,279.67969 Z M -101.54297,279.79687 Q -101.5625,280.16797 -101.5625,280.53906 -101.5625,282.55078 -101.17188,284.03516 -100.74219,285.8125 -99.921875,286.61328 -99.101562,287.41406 -98.398437,287.72656 -97.675781,288.03906 -96.914062,288.03906 -95.429687,288.03906 -94.414062,287.43359 -93.378906,286.80859 -92.988281,285.85156 -92.578125,284.89453 -92.441406,284.21094 -92.304687,283.52734 -92.304687,282.92187 -92.304687,280.89062 -93.515625,279.67969 -94.707031,278.44922 -96.914062,278.44922 -99.511719,278.44922 -101.54297,279.79687 Z" />
      <path
         id="path4154"
         style="font-style:normal;font-variant:normal;font-weight:bold;font-stretch:normal;font-family:'Maven Pro';-inkscape-font-specification:'Maven Pro Bold';fill:#224264;fill-opacity:1"
         d="M -83.4375,276.125 -83.4375,272.00391 -80.039062,272.00391 Q -80,263.72266 -72.597656,263.72266 -71.640625,263.72266 -70.644531,263.91797 L -70.644531,267.6875 Q -71.367187,267.60937 -71.71875,267.60937 -73.59375,267.60937 -74.414062,268.50781 -75.234375,269.40625 -75.234375,272.00391 L -70.644531,272.00391 -70.644531,276.125 -75.234375,276.125 -75.234375,291.96484 -80.039062,291.96484 -80.039062,276.125 -83.4375,276.125 Z" />
      <path
         id="path4156"
         style="font-style:normal;font-variant:normal;font-weight:bold;font-stretch:normal;font-family:'Maven Pro';-inkscape-font-specification:'Maven Pro Bold';fill:#224264;fill-opacity:1"
         d="M -68.378906,276.125 -68.378906,272.00391 -65.019531,272.00391 -65.019531,266.08594 -60.214844,266.08594 -60.214844,272.00391 -55.488281,272.00391 -55.488281,276.125 -60.214844,276.125 -60.214844,285.96875 Q -60.214844,287.25781 -59.6875,287.70703 -59.140625,288.15625 -57.773437,288.15625 -56.484375,288.15625 -55.488281,287.72656 L -55.488281,291.69141 Q -56.894531,292.27734 -58.554687,292.27734 -58.613281,292.27734 -58.652344,292.27734 -61.621094,292.27734 -63.320312,290.51953 -65.019531,288.76172 -65.019531,285.67578 L -65.019531,276.125 -68.378906,276.125 Z" />
      <path
         id="path4158"
         style="font-style:normal;font-variant:normal;font-weight:bold;font-stretch:normal;font-family:'Maven Pro';-inkscape-font-specification:'Maven Pro Bold';fill:#224264;fill-opacity:1"
         d="M -37.1875,281.92578 -37.1875,278.15625 -25,278.15625 -25,281.92578 -37.1875,281.92578 Z" />
    </g>
    <g
       id="text4142"
       style="font-style:normal;font-weight:normal;font-size:40px;line-height:125%;font-family:sans-serif;letter-spacing:0px;word-spacing:0px;fill:#000000;fill-opacity:1;stroke:none;stroke-width:1px;stroke-linecap:butt;stroke-linejoin:miter;stroke-opacity:1">
      <path
         id="path4161"
         style="font-style:normal;font-variant:normal;font-weight:bold;font-stretch:normal;font-family:'Maven Pro';-inkscape-font-specification:'Maven Pro Bold';fill:#224264;fill-opacity:1"
         d="M -106.81641,3.75 Q -106.81641,2.0703125 -106.30859,0.48828125 -105.78125,-1.09375 -104.72656,-2.4804688 -103.65234,-3.8867188 -101.75781,-4.7265625 -99.863281,-5.5664062 -97.382812,-5.5664062 -87.910156,-5.5664062 -87.910156,7.03125 -87.910156,10.839844 -88.867187,13.671875 -89.824219,16.503906 -91.152344,18.007812 -92.460937,19.511719 -94.296875,20.410156 -96.132812,21.308594 -97.480469,21.542969 -98.828125,21.777344 -100.21484,21.777344 -102.16797,21.777344 -104.82422,21.015625 L -104.82422,16.777344 Q -103.22266,17.304687 -100.50781,17.304687 -99.589844,17.304687 -98.59375,17.070312 -97.578125,16.816406 -96.367187,16.25 -95.136719,15.664063 -94.179687,14.375 -93.222656,13.066406 -92.910156,11.230469 -94.648437,12.578125 -97.773437,12.578125 -102.08984,12.578125 -104.45313,10.234375 -106.81641,7.8710937 -106.81641,3.75 Z M -101.97266,3.7890625 Q -101.97266,5.8203125 -100.78125,7.0507812 -99.589844,8.2617188 -97.382812,8.2617188 -94.785156,8.2617188 -92.734375,6.9140625 -92.714844,6.5429687 -92.714844,6.171875 -92.714844,4.1601562 -93.085937,2.6757813 -93.535156,0.8984375 -94.355469,0.09765625 -95.175781,-0.703125 -95.898437,-1.015625 -96.621094,-1.328125 -97.382812,-1.328125 -98.867187,-1.328125 -99.882812,-0.703125 -100.89844,-0.09765625 -101.30859,0.859375 -101.69922,1.8164062 -101.83594,2.5 -101.97266,3.1835938 -101.97266,3.7890625 Z" />
      <path
         id="path4163"
         style="font-style:normal;font-variant:normal;font-weight:bold;font-stretch:normal;font-family:'Maven Pro';-inkscape-font-specification:'Maven Pro Bold';fill:#224264;fill-opacity:1"
         d="M -83.4375,5.625 -83.4375,1.5039062 -80.039062,1.5039062 Q -80,-6.7773437 -72.597656,-6.7773437 -71.640625,-6.7773437 -70.644531,-6.5820312 L -70.644531,-2.8125 Q -71.367187,-2.890625 -71.71875,-2.890625 -73.59375,-2.890625 -74.414062,-1.9921875 -75.234375,-1.09375 -75.234375,1.5039062 L -70.644531,1.5039062 -70.644531,5.625 -75.234375,5.625 -75.234375,21.464844 -80.039062,21.464844 -80.039062,5.625 -83.4375,5.625 Z" />
      <path
         id="path4165"
         style="font-style:normal;font-variant:normal;font-weight:bold;font-stretch:normal;font-family:'Maven Pro';-inkscape-font-specification:'Maven Pro Bold';fill:#224264;fill-opacity:1"
         d="M -68.378906,5.625 -68.378906,1.5039062 -65.019531,1.5039062 -65.019531,-4.4140625 -60.214844,-4.4140625 -60.214844,1.5039062 -55.488281,1.5039062 -55.488281,5.625 -60.214844,5.625 -60.214844,15.46875 Q -60.214844,16.757812 -59.6875,17.207031 -59.140625,17.65625 -57.773437,17.65625 -56.484375,17.65625 -55.488281,17.226562 L -55.488281,21.191406 Q -56.894531,21.777344 -58.554687,21.777344 -58.613281,21.777344 -58.652344,21.777344 -61.621094,21.777344 -63.320312,20.019531 -65.019531,18.261719 -65.019531,15.175781 L -65.019531,5.625 -68.378906,5.625 Z" />
      <path
         id="path4167"
         style="font-style:normal;font-variant:normal;font-weight:bold;font-stretch:normal;font-family:'Maven Pro';-inkscape-font-specification:'Maven Pro Bold';fill:#224264;fill-opacity:1"
         d="M -37.1875,11.425781 -37.1875,7.65625 -25,7.65625 -25,11.425781 -37.1875,11.425781 Z" />
    </g>
    <g
       id="text4141"
       style="font-style:normal;font-weight:normal;font-size:40px;line-height:125%;font-family:sans-serif;letter-spacing:0px;word-spacing:0px;fill:#000000;fill-opacity:1;stroke:none;stroke-width:1px;stroke-linecap:butt;stroke-linejoin:miter;stroke-opacity:1">
      <path
         id="path4143"
         style="font-style:normal;font-variant:normal;font-weight:bold;font-stretch:normal;font-family:'Maven Pro';-inkscape-font-specification:'Maven Pro Bold';fill:#224264;fill-opacity:1"
         d="M -105.70313,560.32422 -105.70313,555.44141 Q -102.1875,557.51172 -98.417969,557.53125 -92.753906,557.53125 -92.753906,553.85937 -92.753906,552.08203 -94.101562,550.94922 -95.429687,549.79687 -98.59375,549.79687 L -101.99219,549.79687 -101.99219,545.85156 -98.457031,545.85156 Q -96.210937,545.85156 -95.117187,544.93359 -94.023437,543.99609 -94.023437,542.64844 -94.023437,541.04687 -95.449219,540.38281 -96.875,539.71875 -98.75,539.71875 -102.22656,539.71875 -105.13672,541.47656 L -105.13672,536.57422 Q -101.66016,534.93359 -98.457031,534.93359 -94.453125,534.93359 -91.835937,536.73047 -89.21875,538.52734 -89.21875,542.49219 -89.21875,545.77344 -92.5,547.57031 -90.46875,548.29297 -89.238281,549.93359 -87.988281,551.57422 -87.988281,553.91797 -87.988281,555.79297 -88.632812,557.27734 -89.257812,558.76172 -90.292969,559.67969 -91.308594,560.59766 -92.695312,561.20312 -94.0625,561.80859 -95.390625,562.04297 -96.699219,562.27734 -98.105469,562.27734 -102.07031,562.27734 -105.70313,560.32422 Z" />
      <path
         id="path4145"
         style="font-style:normal;font-variant:normal;font-weight:bold;font-stretch:normal;font-family:'Maven Pro';-inkscape-font-specification:'Maven Pro Bold';fill:#224264;fill-opacity:1"
         d="M -83.359375,546.125 -83.359375,542.00391 -79.960937,542.00391 Q -79.921875,533.72266 -72.519531,533.72266 -71.5625,533.72266 -70.566406,533.91797 L -70.566406,537.6875 Q -71.289062,537.60937 -71.640625,537.60937 -73.515625,537.60937 -74.335937,538.50781 -75.15625,539.40625 -75.15625,542.00391 L -70.566406,542.00391 -70.566406,546.125 -75.15625,546.125 -75.15625,561.96484 -79.960937,561.96484 -79.960937,546.125 -83.359375,546.125 Z" />
      <path
         id="path4147"
         style="font-style:normal;font-variant:normal;font-weight:bold;font-stretch:normal;font-family:'Maven Pro';-inkscape-font-specification:'Maven Pro Bold';fill:#224264;fill-opacity:1"
         d="M -68.300781,546.125 -68.300781,542.00391 -64.941406,542.00391 -64.941406,536.08594 -60.136719,536.08594 -60.136719,542.00391 -55.410156,542.00391 -55.410156,546.125 -60.136719,546.125 -60.136719,555.96875 Q -60.136719,557.25781 -59.609375,557.70703 -59.0625,558.15625 -57.695312,558.15625 -56.40625,558.15625 -55.410156,557.72656 L -55.410156,561.69141 Q -56.816406,562.27734 -58.476562,562.27734 -58.535156,562.27734 -58.574219,562.27734 -61.542969,562.27734 -63.242187,560.51953 -64.941406,558.76172 -64.941406,555.67578 L -64.941406,546.125 -68.300781,546.125 Z" />
      <path
         id="path4149"
         style="font-style:normal;font-variant:normal;font-weight:bold;font-stretch:normal;font-family:'Maven Pro';-inkscape-font-specification:'Maven Pro Bold';fill:#224264;fill-opacity:1"
         d="M -37.109375,551.92578 -37.109375,548.15625 -24.921875,548.15625 -24.921875,551.92578 -37.109375,551.92578 Z" />
    </g>
  </g>
</svg>
